<mxfile host="app.diagrams.net" agent="Mozilla/5.0 (Macintosh; Intel Mac OS X 10_15_7) AppleWebKit/605.1.15 (KHTML, like Gecko) Version/18.1.1 Safari/605.1.15" version="25.0.3">
  <diagram name="Page-1" id="gNxw8MddvVBNjZTbIHWo">
    <mxGraphModel dx="1051" dy="1032" grid="1" gridSize="10" guides="1" tooltips="1" connect="1" arrows="1" fold="1" page="1" pageScale="1" pageWidth="850" pageHeight="1100" math="0" shadow="0">
      <root>
        <mxCell id="0" />
        <mxCell id="1" parent="0" />
        <mxCell id="H3SU6zbXUFuWfZ92cG2d-4" value="&lt;font style=&quot;font-size: 16px;&quot;&gt;Winners Bracket&lt;/font&gt;" style="text;html=1;align=center;verticalAlign=middle;whiteSpace=wrap;rounded=0;" parent="1" vertex="1">
          <mxGeometry x="39" y="140" width="120" height="30" as="geometry" />
        </mxCell>
        <mxCell id="H3SU6zbXUFuWfZ92cG2d-8" value="" style="group" parent="1" vertex="1" connectable="0">
          <mxGeometry x="219" y="220" width="320" height="70" as="geometry" />
        </mxCell>
        <mxCell id="H3SU6zbXUFuWfZ92cG2d-1" value="" style="endArrow=none;html=1;rounded=0;" parent="H3SU6zbXUFuWfZ92cG2d-8" edge="1">
          <mxGeometry width="50" height="50" relative="1" as="geometry">
            <mxPoint as="sourcePoint" />
            <mxPoint x="160" as="targetPoint" />
          </mxGeometry>
        </mxCell>
        <mxCell id="H3SU6zbXUFuWfZ92cG2d-2" value="" style="endArrow=none;html=1;rounded=0;" parent="H3SU6zbXUFuWfZ92cG2d-8" edge="1">
          <mxGeometry width="50" height="50" relative="1" as="geometry">
            <mxPoint y="70" as="sourcePoint" />
            <mxPoint x="160" y="70" as="targetPoint" />
          </mxGeometry>
        </mxCell>
        <mxCell id="H3SU6zbXUFuWfZ92cG2d-3" value="" style="endArrow=none;html=1;rounded=0;" parent="H3SU6zbXUFuWfZ92cG2d-8" edge="1">
          <mxGeometry width="50" height="50" relative="1" as="geometry">
            <mxPoint x="160" y="70" as="sourcePoint" />
            <mxPoint x="160" as="targetPoint" />
          </mxGeometry>
        </mxCell>
        <mxCell id="H3SU6zbXUFuWfZ92cG2d-5" value="Race 2" style="text;html=1;align=right;verticalAlign=middle;whiteSpace=wrap;rounded=0;" parent="H3SU6zbXUFuWfZ92cG2d-8" vertex="1">
          <mxGeometry x="60" y="20" width="90" height="30" as="geometry" />
        </mxCell>
        <mxCell id="H3SU6zbXUFuWfZ92cG2d-7" value="" style="endArrow=none;html=1;rounded=0;" parent="H3SU6zbXUFuWfZ92cG2d-8" edge="1">
          <mxGeometry width="50" height="50" relative="1" as="geometry">
            <mxPoint x="160" y="36" as="sourcePoint" />
            <mxPoint x="320" y="36" as="targetPoint" />
          </mxGeometry>
        </mxCell>
        <mxCell id="H3SU6zbXUFuWfZ92cG2d-9" value="" style="group" parent="1" vertex="1" connectable="0">
          <mxGeometry x="219" y="360" width="320" height="70" as="geometry" />
        </mxCell>
        <mxCell id="H3SU6zbXUFuWfZ92cG2d-10" value="" style="endArrow=none;html=1;rounded=0;" parent="H3SU6zbXUFuWfZ92cG2d-9" edge="1">
          <mxGeometry width="50" height="50" relative="1" as="geometry">
            <mxPoint as="sourcePoint" />
            <mxPoint x="160" as="targetPoint" />
          </mxGeometry>
        </mxCell>
        <mxCell id="H3SU6zbXUFuWfZ92cG2d-11" value="" style="endArrow=none;html=1;rounded=0;" parent="H3SU6zbXUFuWfZ92cG2d-9" edge="1">
          <mxGeometry width="50" height="50" relative="1" as="geometry">
            <mxPoint y="70" as="sourcePoint" />
            <mxPoint x="160" y="70" as="targetPoint" />
          </mxGeometry>
        </mxCell>
        <mxCell id="H3SU6zbXUFuWfZ92cG2d-12" value="" style="endArrow=none;html=1;rounded=0;" parent="H3SU6zbXUFuWfZ92cG2d-9" edge="1">
          <mxGeometry width="50" height="50" relative="1" as="geometry">
            <mxPoint x="160" y="70" as="sourcePoint" />
            <mxPoint x="160" as="targetPoint" />
          </mxGeometry>
        </mxCell>
        <mxCell id="H3SU6zbXUFuWfZ92cG2d-13" value="Race 3" style="text;html=1;align=right;verticalAlign=middle;whiteSpace=wrap;rounded=0;" parent="H3SU6zbXUFuWfZ92cG2d-9" vertex="1">
          <mxGeometry x="60" y="20" width="90" height="30" as="geometry" />
        </mxCell>
        <mxCell id="H3SU6zbXUFuWfZ92cG2d-14" value="" style="endArrow=none;html=1;rounded=0;" parent="H3SU6zbXUFuWfZ92cG2d-9" edge="1">
          <mxGeometry width="50" height="50" relative="1" as="geometry">
            <mxPoint x="160" y="36" as="sourcePoint" />
            <mxPoint x="320" y="36" as="targetPoint" />
          </mxGeometry>
        </mxCell>
        <mxCell id="H3SU6zbXUFuWfZ92cG2d-15" value="" style="group" parent="1" vertex="1" connectable="0">
          <mxGeometry x="258" y="550" width="320" height="70" as="geometry" />
        </mxCell>
        <mxCell id="H3SU6zbXUFuWfZ92cG2d-16" value="" style="endArrow=none;html=1;rounded=0;" parent="H3SU6zbXUFuWfZ92cG2d-15" edge="1">
          <mxGeometry width="50" height="50" relative="1" as="geometry">
            <mxPoint as="sourcePoint" />
            <mxPoint x="160" as="targetPoint" />
          </mxGeometry>
        </mxCell>
        <mxCell id="H3SU6zbXUFuWfZ92cG2d-17" value="" style="endArrow=none;html=1;rounded=0;" parent="H3SU6zbXUFuWfZ92cG2d-15" edge="1">
          <mxGeometry width="50" height="50" relative="1" as="geometry">
            <mxPoint y="70" as="sourcePoint" />
            <mxPoint x="160" y="70" as="targetPoint" />
          </mxGeometry>
        </mxCell>
        <mxCell id="H3SU6zbXUFuWfZ92cG2d-18" value="" style="endArrow=none;html=1;rounded=0;" parent="H3SU6zbXUFuWfZ92cG2d-15" edge="1">
          <mxGeometry width="50" height="50" relative="1" as="geometry">
            <mxPoint x="160" y="70" as="sourcePoint" />
            <mxPoint x="160" as="targetPoint" />
          </mxGeometry>
        </mxCell>
        <mxCell id="H3SU6zbXUFuWfZ92cG2d-19" value="Race 4" style="text;html=1;align=right;verticalAlign=middle;whiteSpace=wrap;rounded=0;" parent="H3SU6zbXUFuWfZ92cG2d-15" vertex="1">
          <mxGeometry x="60" y="20" width="90" height="30" as="geometry" />
        </mxCell>
        <mxCell id="H3SU6zbXUFuWfZ92cG2d-20" value="" style="endArrow=none;html=1;rounded=0;" parent="H3SU6zbXUFuWfZ92cG2d-15" edge="1">
          <mxGeometry width="50" height="50" relative="1" as="geometry">
            <mxPoint x="160" y="36" as="sourcePoint" />
            <mxPoint x="320" y="36" as="targetPoint" />
          </mxGeometry>
        </mxCell>
        <mxCell id="H3SU6zbXUFuWfZ92cG2d-21" value="&lt;font style=&quot;font-size: 16px;&quot;&gt;Loser Races&lt;/font&gt;" style="text;html=1;align=center;verticalAlign=middle;whiteSpace=wrap;rounded=0;" parent="1" vertex="1">
          <mxGeometry x="39" y="490" width="151" height="30" as="geometry" />
        </mxCell>
        <mxCell id="H3SU6zbXUFuWfZ92cG2d-22" value="Race 6" style="text;html=1;align=right;verticalAlign=middle;whiteSpace=wrap;rounded=0;" parent="1" vertex="1">
          <mxGeometry x="522" y="310" width="90" height="30" as="geometry" />
        </mxCell>
        <mxCell id="H3SU6zbXUFuWfZ92cG2d-24" value="" style="endArrow=none;html=1;rounded=0;" parent="1" edge="1">
          <mxGeometry width="50" height="50" relative="1" as="geometry">
            <mxPoint x="616" y="396" as="sourcePoint" />
            <mxPoint x="616" y="256" as="targetPoint" />
          </mxGeometry>
        </mxCell>
        <mxCell id="H3SU6zbXUFuWfZ92cG2d-25" value="" style="endArrow=none;html=1;rounded=0;" parent="1" edge="1">
          <mxGeometry width="50" height="50" relative="1" as="geometry">
            <mxPoint x="616" y="326" as="sourcePoint" />
            <mxPoint x="777" y="326" as="targetPoint" />
          </mxGeometry>
        </mxCell>
        <mxCell id="H3SU6zbXUFuWfZ92cG2d-26" value="" style="endArrow=none;html=1;rounded=0;" parent="1" edge="1">
          <mxGeometry width="50" height="50" relative="1" as="geometry">
            <mxPoint x="617" y="436" as="sourcePoint" />
            <mxPoint x="777" y="436" as="targetPoint" />
          </mxGeometry>
        </mxCell>
        <mxCell id="H3SU6zbXUFuWfZ92cG2d-27" value="" style="endArrow=none;html=1;rounded=0;" parent="1" edge="1">
          <mxGeometry width="50" height="50" relative="1" as="geometry">
            <mxPoint x="578" y="666" as="sourcePoint" />
            <mxPoint x="777" y="666" as="targetPoint" />
          </mxGeometry>
        </mxCell>
        <mxCell id="H3SU6zbXUFuWfZ92cG2d-28" value="1st Place" style="text;html=1;align=center;verticalAlign=middle;whiteSpace=wrap;rounded=0;" parent="1" vertex="1">
          <mxGeometry x="654" y="325" width="90" height="30" as="geometry" />
        </mxCell>
        <mxCell id="H3SU6zbXUFuWfZ92cG2d-29" value="2nd Place" style="text;html=1;align=center;verticalAlign=middle;whiteSpace=wrap;rounded=0;" parent="1" vertex="1">
          <mxGeometry x="654" y="436" width="90" height="30" as="geometry" />
        </mxCell>
        <mxCell id="H3SU6zbXUFuWfZ92cG2d-30" value="3rd Place" style="text;html=1;align=center;verticalAlign=middle;whiteSpace=wrap;rounded=0;" parent="1" vertex="1">
          <mxGeometry x="654" y="666" width="90" height="30" as="geometry" />
        </mxCell>
        <mxCell id="H3SU6zbXUFuWfZ92cG2d-31" value="4th Pace" style="text;html=1;align=center;verticalAlign=middle;whiteSpace=wrap;rounded=0;" parent="1" vertex="1">
          <mxGeometry x="654" y="766" width="90" height="30" as="geometry" />
        </mxCell>
        <mxCell id="H3SU6zbXUFuWfZ92cG2d-32" value="Winner Race 6" style="text;html=1;align=center;verticalAlign=middle;whiteSpace=wrap;rounded=0;" parent="1" vertex="1">
          <mxGeometry x="654" y="295" width="90" height="30" as="geometry" />
        </mxCell>
        <mxCell id="H3SU6zbXUFuWfZ92cG2d-33" value="Loser Race 6" style="text;html=1;align=center;verticalAlign=middle;whiteSpace=wrap;rounded=0;" parent="1" vertex="1">
          <mxGeometry x="654" y="406" width="90" height="30" as="geometry" />
        </mxCell>
        <mxCell id="H3SU6zbXUFuWfZ92cG2d-35" value="Winner Race 5" style="text;html=1;align=center;verticalAlign=middle;whiteSpace=wrap;rounded=0;" parent="1" vertex="1">
          <mxGeometry x="654" y="636" width="90" height="30" as="geometry" />
        </mxCell>
        <mxCell id="H3SU6zbXUFuWfZ92cG2d-36" value="Loser Race 5" style="text;html=1;align=center;verticalAlign=middle;whiteSpace=wrap;rounded=0;" parent="1" vertex="1">
          <mxGeometry x="654" y="736" width="90" height="30" as="geometry" />
        </mxCell>
        <mxCell id="H3SU6zbXUFuWfZ92cG2d-37" value="Winner Race 2" style="text;html=1;align=center;verticalAlign=middle;whiteSpace=wrap;rounded=0;" parent="1" vertex="1">
          <mxGeometry x="489" y="226" width="90" height="30" as="geometry" />
        </mxCell>
        <mxCell id="H3SU6zbXUFuWfZ92cG2d-38" value="Winner Race 3" style="text;html=1;align=center;verticalAlign=middle;whiteSpace=wrap;rounded=0;" parent="1" vertex="1">
          <mxGeometry x="489" y="366" width="90" height="30" as="geometry" />
        </mxCell>
        <mxCell id="H3SU6zbXUFuWfZ92cG2d-39" value="Loser Race 2" style="text;html=1;align=center;verticalAlign=middle;whiteSpace=wrap;rounded=0;" parent="1" vertex="1">
          <mxGeometry x="289" y="520" width="90" height="30" as="geometry" />
        </mxCell>
        <mxCell id="H3SU6zbXUFuWfZ92cG2d-40" value="Loser Race 1" style="text;html=1;align=center;verticalAlign=middle;whiteSpace=wrap;rounded=0;" parent="1" vertex="1">
          <mxGeometry x="289" y="590" width="90" height="30" as="geometry" />
        </mxCell>
        <mxCell id="H3SU6zbXUFuWfZ92cG2d-41" value="Bracket Seed 2" style="text;html=1;align=center;verticalAlign=middle;whiteSpace=wrap;rounded=0;" parent="1" vertex="1">
          <mxGeometry x="249" y="190" width="90" height="30" as="geometry" />
        </mxCell>
        <mxCell id="H3SU6zbXUFuWfZ92cG2d-42" value="Bracket Seed 3" style="text;html=1;align=center;verticalAlign=middle;whiteSpace=wrap;rounded=0;" parent="1" vertex="1">
          <mxGeometry x="249" y="260" width="90" height="30" as="geometry" />
        </mxCell>
        <mxCell id="H3SU6zbXUFuWfZ92cG2d-43" value="Winner Race 1" style="text;html=1;align=center;verticalAlign=middle;whiteSpace=wrap;rounded=0;" parent="1" vertex="1">
          <mxGeometry x="249" y="330" width="90" height="30" as="geometry" />
        </mxCell>
        <mxCell id="H3SU6zbXUFuWfZ92cG2d-44" value="Bracket Seed 1" style="text;html=1;align=center;verticalAlign=middle;whiteSpace=wrap;rounded=0;" parent="1" vertex="1">
          <mxGeometry x="249" y="400" width="90" height="30" as="geometry" />
        </mxCell>
        <mxCell id="IuvQdy2Z3pqtqVISLEcr-1" value="" style="group" vertex="1" connectable="0" parent="1">
          <mxGeometry x="19" y="324" width="320" height="70" as="geometry" />
        </mxCell>
        <mxCell id="IuvQdy2Z3pqtqVISLEcr-2" value="" style="endArrow=none;html=1;rounded=0;" edge="1" parent="IuvQdy2Z3pqtqVISLEcr-1">
          <mxGeometry width="50" height="50" relative="1" as="geometry">
            <mxPoint as="sourcePoint" />
            <mxPoint x="160" as="targetPoint" />
          </mxGeometry>
        </mxCell>
        <mxCell id="IuvQdy2Z3pqtqVISLEcr-3" value="" style="endArrow=none;html=1;rounded=0;" edge="1" parent="IuvQdy2Z3pqtqVISLEcr-1">
          <mxGeometry width="50" height="50" relative="1" as="geometry">
            <mxPoint y="70" as="sourcePoint" />
            <mxPoint x="160" y="70" as="targetPoint" />
          </mxGeometry>
        </mxCell>
        <mxCell id="IuvQdy2Z3pqtqVISLEcr-4" value="" style="endArrow=none;html=1;rounded=0;" edge="1" parent="IuvQdy2Z3pqtqVISLEcr-1">
          <mxGeometry width="50" height="50" relative="1" as="geometry">
            <mxPoint x="160" y="70" as="sourcePoint" />
            <mxPoint x="160" as="targetPoint" />
          </mxGeometry>
        </mxCell>
        <mxCell id="IuvQdy2Z3pqtqVISLEcr-5" value="Race 1" style="text;html=1;align=right;verticalAlign=middle;whiteSpace=wrap;rounded=0;" vertex="1" parent="IuvQdy2Z3pqtqVISLEcr-1">
          <mxGeometry x="60" y="20" width="90" height="30" as="geometry" />
        </mxCell>
        <mxCell id="IuvQdy2Z3pqtqVISLEcr-6" value="" style="endArrow=none;html=1;rounded=0;" edge="1" parent="IuvQdy2Z3pqtqVISLEcr-1">
          <mxGeometry width="50" height="50" relative="1" as="geometry">
            <mxPoint x="160" y="36" as="sourcePoint" />
            <mxPoint x="320" y="36" as="targetPoint" />
          </mxGeometry>
        </mxCell>
        <mxCell id="IuvQdy2Z3pqtqVISLEcr-7" value="Race 5" style="text;html=1;align=right;verticalAlign=middle;whiteSpace=wrap;rounded=0;" vertex="1" parent="1">
          <mxGeometry x="484" y="640" width="90" height="30" as="geometry" />
        </mxCell>
        <mxCell id="IuvQdy2Z3pqtqVISLEcr-8" value="" style="endArrow=none;html=1;rounded=0;" edge="1" parent="1">
          <mxGeometry width="50" height="50" relative="1" as="geometry">
            <mxPoint x="578" y="726" as="sourcePoint" />
            <mxPoint x="578" y="586" as="targetPoint" />
          </mxGeometry>
        </mxCell>
        <mxCell id="IuvQdy2Z3pqtqVISLEcr-9" value="Winner Race 4" style="text;html=1;align=center;verticalAlign=middle;whiteSpace=wrap;rounded=0;" vertex="1" parent="1">
          <mxGeometry x="448" y="556" width="90" height="30" as="geometry" />
        </mxCell>
        <mxCell id="IuvQdy2Z3pqtqVISLEcr-11" value="" style="endArrow=none;html=1;rounded=0;" edge="1" parent="1">
          <mxGeometry width="50" height="50" relative="1" as="geometry">
            <mxPoint x="418" y="726" as="sourcePoint" />
            <mxPoint x="578" y="726" as="targetPoint" />
          </mxGeometry>
        </mxCell>
        <mxCell id="IuvQdy2Z3pqtqVISLEcr-13" value="Loser Race 3" style="text;html=1;align=center;verticalAlign=middle;whiteSpace=wrap;rounded=0;" vertex="1" parent="1">
          <mxGeometry x="454" y="696" width="90" height="30" as="geometry" />
        </mxCell>
        <mxCell id="IuvQdy2Z3pqtqVISLEcr-14" value="Bracket Seed 4" style="text;html=1;align=center;verticalAlign=middle;whiteSpace=wrap;rounded=0;" vertex="1" parent="1">
          <mxGeometry x="49" y="294" width="90" height="30" as="geometry" />
        </mxCell>
        <mxCell id="IuvQdy2Z3pqtqVISLEcr-15" value="Bracket Seed 5" style="text;html=1;align=center;verticalAlign=middle;whiteSpace=wrap;rounded=0;" vertex="1" parent="1">
          <mxGeometry x="49" y="364" width="90" height="30" as="geometry" />
        </mxCell>
        <mxCell id="IuvQdy2Z3pqtqVISLEcr-16" value="" style="endArrow=none;html=1;rounded=0;" edge="1" parent="1">
          <mxGeometry width="50" height="50" relative="1" as="geometry">
            <mxPoint x="538" y="256" as="sourcePoint" />
            <mxPoint x="616" y="256" as="targetPoint" />
          </mxGeometry>
        </mxCell>
        <mxCell id="IuvQdy2Z3pqtqVISLEcr-17" value="" style="endArrow=none;html=1;rounded=0;" edge="1" parent="1">
          <mxGeometry width="50" height="50" relative="1" as="geometry">
            <mxPoint x="538" y="396" as="sourcePoint" />
            <mxPoint x="616" y="396" as="targetPoint" />
          </mxGeometry>
        </mxCell>
        <mxCell id="IuvQdy2Z3pqtqVISLEcr-18" value="" style="endArrow=none;html=1;rounded=0;" edge="1" parent="1">
          <mxGeometry width="50" height="50" relative="1" as="geometry">
            <mxPoint x="617" y="766" as="sourcePoint" />
            <mxPoint x="777" y="766" as="targetPoint" />
          </mxGeometry>
        </mxCell>
        <mxCell id="IuvQdy2Z3pqtqVISLEcr-19" value="5th Pace" style="text;html=1;align=center;verticalAlign=middle;whiteSpace=wrap;rounded=0;" vertex="1" parent="1">
          <mxGeometry x="654" y="846" width="90" height="30" as="geometry" />
        </mxCell>
        <mxCell id="IuvQdy2Z3pqtqVISLEcr-20" value="Loser Race 4" style="text;html=1;align=center;verticalAlign=middle;whiteSpace=wrap;rounded=0;" vertex="1" parent="1">
          <mxGeometry x="654" y="816" width="90" height="30" as="geometry" />
        </mxCell>
        <mxCell id="IuvQdy2Z3pqtqVISLEcr-21" value="" style="endArrow=none;html=1;rounded=0;" edge="1" parent="1">
          <mxGeometry width="50" height="50" relative="1" as="geometry">
            <mxPoint x="613" y="846" as="sourcePoint" />
            <mxPoint x="773" y="846" as="targetPoint" />
          </mxGeometry>
        </mxCell>
      </root>
    </mxGraphModel>
  </diagram>
</mxfile>
